<svg width="23" height="22" viewBox="0 0 23 22" fill="none" xmlns="http://www.w3.org/2000/svg">
<path fill-rule="evenodd" clip-rule="evenodd" d="M9.93775 0.593862C10.0983 0.232734 10.4564 0 10.8516 0C11.9124 0 12.9298 0.421427 13.68 1.17157C14.4301 1.92172 14.8516 2.93913 14.8516 4V7H19.5064C19.9392 6.996 20.3677 7.08567 20.7626 7.26289C21.1594 7.44096 21.5127 7.70317 21.798 8.03134C22.0834 8.35951 22.294 8.7458 22.4152 9.16344C22.5365 9.58109 22.5655 10.0201 22.5002 10.4501L21.1203 19.4499C21.1202 19.4502 21.1203 19.4497 21.1203 19.4499C21.0116 20.165 20.6482 20.8175 20.0971 21.2859C19.5474 21.7532 18.8477 22.0067 18.1264 22H3.85156C3.05591 22 2.29285 21.6839 1.73024 21.1213C1.16763 20.5587 0.851562 19.7957 0.851562 19V12C0.851562 11.2044 1.16763 10.4413 1.73024 9.87868C2.29285 9.31607 3.05591 9 3.85156 9H6.20169L9.93775 0.593862ZM5.85156 11H3.85156C3.58635 11 3.33199 11.1054 3.14446 11.2929C2.95692 11.4804 2.85156 11.7348 2.85156 12V19C2.85156 19.2652 2.95692 19.5196 3.14446 19.7071C3.33199 19.8946 3.58635 20 3.85156 20H5.85156V11ZM7.85156 20H18.1429C18.384 20.0027 18.6181 19.9183 18.8018 19.7621C18.9856 19.6059 19.1067 19.3885 19.1429 19.1501L20.5229 10.1499C20.5229 10.1498 20.5229 10.1501 20.5229 10.1499C20.5446 10.0067 20.5349 9.86015 20.4946 9.72106C20.4541 9.58185 20.3839 9.45308 20.2888 9.34369C20.1937 9.2343 20.0759 9.1469 19.9437 9.08754C19.8114 9.02819 19.6678 8.99829 19.5229 8.99994L19.5116 9.00006L13.8516 9C13.2993 9 12.8516 8.55228 12.8516 8V4C12.8516 3.46957 12.6408 2.96086 12.2658 2.58579C12.0379 2.35794 11.7608 2.19075 11.4594 2.0946L7.85156 10.2122V20Z" fill="#D9D9D9"/>
</svg>
