<svg width="34" height="34" viewBox="0 0 34 34" fill="none" xmlns="http://www.w3.org/2000/svg">
<path fill-rule="evenodd" clip-rule="evenodd" d="M14.1293 1.39079C14.37 0.8491 14.9072 0.5 15.5 0.5C17.0913 0.5 18.6174 1.13214 19.7426 2.25736C20.8679 3.38258 21.5 4.9087 21.5 6.5V11H28.4824C29.1315 10.994 29.7743 11.1285 30.3666 11.3943C30.9617 11.6614 31.4916 12.0547 31.9197 12.547C32.3477 13.0393 32.6637 13.6187 32.8455 14.2452C33.0274 14.8716 33.0709 15.5302 32.973 16.1751L30.903 29.6749L30.9029 29.6761C30.7399 30.7487 30.195 31.7263 29.3683 32.4289C28.5438 33.1298 27.4943 33.51 26.4123 33.5H5C3.80652 33.5 2.66193 33.0259 1.81802 32.182C0.974106 31.3381 0.5 30.1935 0.5 29V18.5C0.5 17.3065 0.974106 16.1619 1.81802 15.318C2.66193 14.4741 3.80653 14 5 14H8.52519L14.1293 1.39079ZM8 17H5C4.60218 17 4.22064 17.158 3.93934 17.4393C3.65804 17.7206 3.5 18.1022 3.5 18.5V29C3.5 29.3978 3.65803 29.7794 3.93934 30.0607C4.22065 30.342 4.60218 30.5 5 30.5H8V17ZM11 30.5H26.42L26.437 30.5001C26.7987 30.5042 27.1497 30.3774 27.4254 30.1431C27.701 29.9088 27.8827 29.5828 27.937 29.2251L30.007 15.7249V15.7249C30.0395 15.5101 30.0251 15.2902 29.9645 15.0816C29.9039 14.8728 29.7986 14.6796 29.6559 14.5155C29.5132 14.3515 29.3365 14.2204 29.1382 14.1313C28.9398 14.0423 28.7244 13.9974 28.507 13.9999L28.49 14H20C19.1716 14 18.5 13.3284 18.5 12.5V6.5C18.5 5.70435 18.1839 4.94129 17.6213 4.37868C17.2796 4.03691 16.8638 3.78612 16.4117 3.6419L11 15.8183V30.5Z" fill="#DEFF4D"/>
</svg>
