<svg width="36" height="38" viewBox="0 0 36 38" fill="none" xmlns="http://www.w3.org/2000/svg">
<path d="M6.5 20.4004C7.32843 20.4004 8 19.7288 8 18.9004C8 18.072 7.32843 17.4004 6.5 17.4004C5.67157 17.4004 5 18.072 5 18.9004C5 19.7288 5.67157 20.4004 6.5 20.4004Z" stroke="#D9D9D9" stroke-width="3" stroke-linecap="round" stroke-linejoin="round"/>
<path d="M17.5 20.4004C18.3284 20.4004 19 19.7288 19 18.9004C19 18.072 18.3284 17.4004 17.5 17.4004C16.6716 17.4004 16 18.072 16 18.9004C16 19.7288 16.6716 20.4004 17.5 20.4004Z" stroke="#D9D9D9" stroke-width="3" stroke-linecap="round" stroke-linejoin="round"/>
<path d="M28.5 20.4004C29.3284 20.4004 30 19.7288 30 18.9004C30 18.072 29.3284 17.4004 28.5 17.4004C27.6716 17.4004 27 18.072 27 18.9004C27 19.7288 27.6716 20.4004 28.5 20.4004Z" stroke="#D9D9D9" stroke-width="3" stroke-linecap="round" stroke-linejoin="round"/>
</svg>
