<svg width="20" height="20" viewBox="0 0 20 20" fill="none" xmlns="http://www.w3.org/2000/svg">
<g clip-path="url(#clip0_3133_5297)">
<path d="M13.5998 16.8V15.2C13.5998 14.3513 13.2627 13.5374 12.6625 12.9373C12.0624 12.3371 11.2485 12 10.3998 12H3.9998C3.15111 12 2.33718 12.3371 1.73706 12.9373C1.13695 13.5374 0.799805 14.3513 0.799805 15.2V16.8" stroke="#D9D9D9" stroke-width="1.6" stroke-linecap="round" stroke-linejoin="round"/>
<path d="M7.2 8.79941C8.96731 8.79941 10.4 7.36673 10.4 5.59941C10.4 3.8321 8.96731 2.39941 7.2 2.39941C5.43269 2.39941 4 3.8321 4 5.59941C4 7.36673 5.43269 8.79941 7.2 8.79941Z" stroke="#D9D9D9" stroke-width="1.6" stroke-linecap="round" stroke-linejoin="round"/>
<path d="M18.4 16.7995V15.1995C18.3995 14.4905 18.1635 13.8017 17.7291 13.2414C17.2947 12.681 16.6865 12.2808 16 12.1035" stroke="#D9D9D9" stroke-width="1.6" stroke-linecap="round" stroke-linejoin="round"/>
<path d="M12.7998 2.50391C13.4881 2.68015 14.0982 3.08047 14.5339 3.64175C14.9696 4.20304 15.2061 4.89337 15.2061 5.60391C15.2061 6.31444 14.9696 7.00477 14.5339 7.56606C14.0982 8.12734 13.4881 8.52767 12.7998 8.70391" stroke="#D9D9D9" stroke-width="1.6" stroke-linecap="round" stroke-linejoin="round"/>
</g>
<defs>
<clipPath id="clip0_3133_5297">
<rect width="19.2" height="19.2" fill="white"/>
</clipPath>
</defs>
</svg>
