<svg width="44" height="44" viewBox="0 0 44 44" fill="none" xmlns="http://www.w3.org/2000/svg">
<path d="M29.1821 9.16985C29.5529 8.79896 29.9933 8.50476 30.4778 8.30403C30.9624 8.10331 31.4818 8 32.0063 8C32.5308 8 33.0502 8.10331 33.5348 8.30403C34.0194 8.50476 34.4597 8.79896 34.8306 9.16985C35.2015 9.54074 35.4957 9.98105 35.6964 10.4656C35.8971 10.9502 36.0005 11.4696 36.0005 11.9941C36.0005 12.5186 35.8971 13.038 35.6964 13.5226C35.4957 14.0072 35.2015 14.4475 34.8306 14.8184L15.7668 33.8822L8 36.0005L10.1182 28.2337L29.1821 9.16985Z" stroke="#D9D9D9" stroke-width="2.25942" stroke-linecap="round" stroke-linejoin="round"/>
</svg>
