<svg width="70" height="70" viewBox="0 0 70 70" fill="none" xmlns="http://www.w3.org/2000/svg">
<rect width="70" height="70" rx="35" fill="#4D4D4D"/>
<path d="M48.2599 23.9153C47.4938 23.1488 46.5842 22.5408 45.583 22.1259C44.5818 21.7111 43.5087 21.4976 42.4249 21.4976C41.3412 21.4976 40.2681 21.7111 39.2669 22.1259C38.2657 22.5408 37.3561 23.1488 36.5899 23.9153L34.9999 25.5053L33.4099 23.9153C31.8624 22.3678 29.7635 21.4984 27.5749 21.4984C25.3864 21.4984 23.2875 22.3678 21.7399 23.9153C20.1924 25.4628 19.323 27.5617 19.323 29.7503C19.323 31.9388 20.1924 34.0378 21.7399 35.5853L23.3299 37.1753L34.9999 48.8453L46.6699 37.1753L48.2599 35.5853C49.0264 34.8192 49.6345 33.9095 50.0493 32.9083C50.4641 31.9071 50.6777 30.834 50.6777 29.7503C50.6777 28.6666 50.4641 27.5935 50.0493 26.5923C49.6345 25.5911 49.0264 24.6814 48.2599 23.9153Z" stroke="#DEFF4D" stroke-width="3" stroke-linecap="round" stroke-linejoin="round"/>
</svg>
