<svg width="36" height="36" viewBox="0 0 36 36" fill="none" xmlns="http://www.w3.org/2000/svg">
<path d="M31.2599 6.9153C30.4938 6.1488 29.5842 5.54077 28.583 5.12592C27.5818 4.71108 26.5087 4.49756 25.4249 4.49756C24.3412 4.49756 23.2681 4.71108 22.2669 5.12592C21.2657 5.54077 20.3561 6.1488 19.5899 6.9153L17.9999 8.5053L16.4099 6.9153C14.8624 5.36776 12.7635 4.49836 10.5749 4.49836C8.38638 4.49836 6.28747 5.36776 4.73993 6.9153C3.1924 8.46284 2.323 10.5617 2.323 12.7503C2.323 14.9388 3.1924 17.0378 4.73993 18.5853L6.32993 20.1753L17.9999 31.8453L29.6699 20.1753L31.2599 18.5853C32.0264 17.8192 32.6345 16.9095 33.0493 15.9083C33.4641 14.9071 33.6777 13.834 33.6777 12.7503C33.6777 11.6666 33.4641 10.5935 33.0493 9.59226C32.6345 8.59108 32.0264 7.68143 31.2599 6.9153Z" stroke="#D9D9D9" stroke-width="3" stroke-linecap="round" stroke-linejoin="round"/>
</svg>
