<svg width="180" height="59" viewBox="0 0 180 59" fill="none" xmlns="http://www.w3.org/2000/svg">
<mask id="path-1-outside-1_1219_11785" maskUnits="userSpaceOnUse" x="4.0752" y="5.84375" width="114" height="46" fill="black">
<rect fill="white" x="4.0752" y="5.84375" width="114" height="46"/>
<path fill-rule="evenodd" clip-rule="evenodd" d="M17.2335 12.2465H13.5218C12.3729 12.2465 10.0752 12.5911 10.0752 13.9697C10.0752 15.693 12.859 15.8256 13.5218 15.8256H21.4754C22.8452 15.8256 25.5848 16.6475 25.5848 19.935V41.012C25.5848 42.3818 26.0089 45.1214 27.7057 45.1214C29.8267 45.1214 30.2244 42.3376 30.2244 41.012V19.935C30.1802 18.5652 30.9932 15.8256 34.5989 15.8256H42.2873C43.392 15.8256 45.3627 16.1702 44.4083 17.5489C43.2153 19.2722 42.741 20.3276 42.5525 22.5862C42.2873 25.7626 42.6373 29.6697 44.4083 33.0584C45.999 36.1023 48.5177 39.5539 52.0968 41.6748C55.6759 43.7958 58.4597 44.9888 61.7737 45.3865C65.0877 45.7842 70.125 45.6466 72.9088 44.8513C75.6925 44.0559 77.6809 43.3931 79.8019 41.012C80.995 39.6727 82.188 37.4329 82.4531 35.3119C82.8508 32.1305 82.4531 27.8886 80.7298 24.8397C79.0065 21.7908 76.2228 17.9465 72.9088 16.0907C69.5948 14.2349 64.4249 11.7162 59.1225 11.8488C54.7405 11.9583 53.9798 12.1584 52.8751 12.4491L52.8751 12.4491L52.8749 12.4491C52.643 12.5101 52.3958 12.5752 52.0968 12.6442C50.3735 13.0418 49.313 13.567 48.6502 13.9647C47.9874 14.3624 46.7862 14.3425 46.6618 13.9647C46.5362 13.5831 45.92 12.9643 45.6439 12.6869L45.6014 12.6442C45.041 12.0795 44.1964 12.0906 42.9074 12.1075C42.6717 12.1106 42.4212 12.1139 42.1548 12.1139C40.7468 12.1139 33.1289 12.1571 25.8782 12.1981C22.7528 12.2158 19.6957 12.2331 17.2335 12.2465ZM80.3602 45.7491C80.9917 45.762 81.7437 45.7773 82.4747 44.1935C83.111 42.8149 90.6934 26.8281 94.4051 19.007C94.5377 18.6535 94.8823 18.1586 95.2005 19.007C95.5186 19.8554 101.939 35.8864 105.519 43.7958C105.784 44.4144 106.791 45.6516 108.7 45.6516C111.086 45.6516 111.882 44.326 111.882 42.8679V13.9697C111.882 13.3511 111.51 12.1139 110.026 12.1139C108.541 12.1139 108.17 13.3511 108.17 13.9697V37.8306C108.258 38.7143 108.223 39.9781 107.374 37.9632C106.526 35.9482 99.9511 21.0396 96.7696 13.8372C96.4161 12.5999 95.391 10.8678 94.1184 13.8372C92.8458 16.8065 84.5741 34.3398 80.5973 42.7353C80.1554 43.5324 79.666 45.3267 80.1962 45.7469C80.2499 45.7469 80.3046 45.748 80.3602 45.7491ZM56.3999 40.5432C64.8665 44.9906 74.4807 43.3593 77.8739 36.8997C81.267 30.4401 77.1542 21.5982 68.6876 17.1508C60.221 12.7034 50.6068 14.3347 47.2137 20.7943C43.8205 27.2539 47.9333 36.0958 56.3999 40.5432Z"/>
</mask>
<path fill-rule="evenodd" clip-rule="evenodd" d="M17.2335 12.2465H13.5218C12.3729 12.2465 10.0752 12.5911 10.0752 13.9697C10.0752 15.693 12.859 15.8256 13.5218 15.8256H21.4754C22.8452 15.8256 25.5848 16.6475 25.5848 19.935V41.012C25.5848 42.3818 26.0089 45.1214 27.7057 45.1214C29.8267 45.1214 30.2244 42.3376 30.2244 41.012V19.935C30.1802 18.5652 30.9932 15.8256 34.5989 15.8256H42.2873C43.392 15.8256 45.3627 16.1702 44.4083 17.5489C43.2153 19.2722 42.741 20.3276 42.5525 22.5862C42.2873 25.7626 42.6373 29.6697 44.4083 33.0584C45.999 36.1023 48.5177 39.5539 52.0968 41.6748C55.6759 43.7958 58.4597 44.9888 61.7737 45.3865C65.0877 45.7842 70.125 45.6466 72.9088 44.8513C75.6925 44.0559 77.6809 43.3931 79.8019 41.012C80.995 39.6727 82.188 37.4329 82.4531 35.3119C82.8508 32.1305 82.4531 27.8886 80.7298 24.8397C79.0065 21.7908 76.2228 17.9465 72.9088 16.0907C69.5948 14.2349 64.4249 11.7162 59.1225 11.8488C54.7405 11.9583 53.9798 12.1584 52.8751 12.4491L52.8751 12.4491L52.8749 12.4491C52.643 12.5101 52.3958 12.5752 52.0968 12.6442C50.3735 13.0418 49.313 13.567 48.6502 13.9647C47.9874 14.3624 46.7862 14.3425 46.6618 13.9647C46.5362 13.5831 45.92 12.9643 45.6439 12.6869L45.6014 12.6442C45.041 12.0795 44.1964 12.0906 42.9074 12.1075C42.6717 12.1106 42.4212 12.1139 42.1548 12.1139C40.7468 12.1139 33.1289 12.1571 25.8782 12.1981C22.7528 12.2158 19.6957 12.2331 17.2335 12.2465ZM80.3602 45.7491C80.9917 45.762 81.7437 45.7773 82.4747 44.1935C83.111 42.8149 90.6934 26.8281 94.4051 19.007C94.5377 18.6535 94.8823 18.1586 95.2005 19.007C95.5186 19.8554 101.939 35.8864 105.519 43.7958C105.784 44.4144 106.791 45.6516 108.7 45.6516C111.086 45.6516 111.882 44.326 111.882 42.8679V13.9697C111.882 13.3511 111.51 12.1139 110.026 12.1139C108.541 12.1139 108.17 13.3511 108.17 13.9697V37.8306C108.258 38.7143 108.223 39.9781 107.374 37.9632C106.526 35.9482 99.9511 21.0396 96.7696 13.8372C96.4161 12.5999 95.391 10.8678 94.1184 13.8372C92.8458 16.8065 84.5741 34.3398 80.5973 42.7353C80.1554 43.5324 79.666 45.3267 80.1962 45.7469C80.2499 45.7469 80.3046 45.748 80.3602 45.7491ZM56.3999 40.5432C64.8665 44.9906 74.4807 43.3593 77.8739 36.8997C81.267 30.4401 77.1542 21.5982 68.6876 17.1508C60.221 12.7034 50.6068 14.3347 47.2137 20.7943C43.8205 27.2539 47.9333 36.0958 56.3999 40.5432Z" fill="black"/>
<path d="M17.2335 12.2465V17.9651H17.2489L17.2644 17.965L17.2335 12.2465ZM30.2244 19.935H35.943V19.8427L35.94 19.7506L30.2244 19.935ZM44.4083 17.5489L39.7065 14.2938L39.7065 14.2938L44.4083 17.5489ZM42.5525 22.5862L36.8537 22.1105V22.1105L42.5525 22.5862ZM44.4083 33.0584L39.3401 35.7071L39.3401 35.7071L44.4083 33.0584ZM61.7737 45.3865L61.0924 51.0644L61.0924 51.0644L61.7737 45.3865ZM79.8019 41.012L75.5318 37.2083L75.5317 37.2083L79.8019 41.012ZM82.4531 35.3119L88.1276 36.0213L88.1276 36.0212L82.4531 35.3119ZM80.7298 24.8397L85.7082 22.0258L85.7082 22.0258L80.7298 24.8397ZM72.9088 16.0907L70.1146 21.0802L70.1146 21.0802L72.9088 16.0907ZM59.1225 11.8488L59.2654 17.5656L59.1225 11.8488ZM52.8751 12.4491L51.4202 6.91864L51.4002 6.9239L51.3802 6.92931L52.8751 12.4491ZM52.8751 12.4491L54.3432 17.976L54.3566 17.9725L54.37 17.9688L52.8751 12.4491ZM52.8749 12.4491L54.3298 17.9796L54.343 17.9761L52.8749 12.4491ZM52.0968 12.6442L50.8109 7.072L50.8109 7.072L52.0968 12.6442ZM48.6502 13.9647L51.5924 18.8684L51.5924 18.8684L48.6502 13.9647ZM46.6618 13.9647L41.2299 15.7526L41.2299 15.7527L46.6618 13.9647ZM45.6439 12.6869L41.5895 16.7198L41.5916 16.7219L45.6439 12.6869ZM45.6014 12.6442L41.5424 16.6725L41.5469 16.677L45.6014 12.6442ZM42.9074 12.1075L42.9824 17.8257L42.9074 12.1075ZM25.8782 12.1981L25.9106 17.9166L25.8782 12.1981ZM82.4747 44.1935L77.2824 41.797L77.2824 41.7971L82.4747 44.1935ZM80.3602 45.7491L80.2437 51.4665L80.2438 51.4666L80.3602 45.7491ZM94.4051 19.007L99.5715 21.4589L99.6749 21.2409L99.7596 21.015L94.4051 19.007ZM105.519 43.7958L110.775 41.5431L110.752 41.4904L110.729 41.4382L105.519 43.7958ZM108.17 37.8306H102.451V38.1158L102.48 38.3996L108.17 37.8306ZM107.374 37.9632L102.104 40.1823L102.104 40.1823L107.374 37.9632ZM96.7696 13.8372L91.271 15.4082L91.3793 15.7872L91.5386 16.1478L96.7696 13.8372ZM94.1184 13.8372L88.8622 11.5845L88.8622 11.5845L94.1184 13.8372ZM80.5973 42.7353L85.5987 45.5081L85.6872 45.3484L85.7654 45.1834L80.5973 42.7353ZM80.1962 45.7469L76.6446 50.2289L78.2051 51.4655H80.1962V45.7469ZM77.8739 36.8997L82.9365 39.559L77.8739 36.8997ZM56.3999 40.5432L59.0593 35.4805L56.3999 40.5432ZM68.6876 17.1508L71.347 12.0881L68.6876 17.1508ZM47.2137 20.7943L42.151 18.1349L42.151 18.1349L47.2137 20.7943ZM13.5218 17.9651H17.2335V6.52785H13.5218V17.9651ZM15.7938 13.9697C15.7938 15.4191 15.1198 16.5587 14.4322 17.2252C13.865 17.7749 13.3605 17.9516 13.3047 17.9717C13.1964 18.0106 13.3476 17.9651 13.5218 17.9651V6.52785C12.5471 6.52785 10.975 6.6546 9.43065 7.21055C8.30677 7.61514 4.35659 9.35815 4.35659 13.9697H15.7938ZM13.5218 10.107C13.5248 10.107 13.4415 10.1061 13.3351 10.0943C13.2119 10.0806 13.2012 10.0681 13.2886 10.096C13.3221 10.1067 13.8442 10.2632 14.4349 10.8178C14.7604 11.1234 15.1205 11.5646 15.3928 12.1574C15.6709 12.763 15.7938 13.3896 15.7938 13.9697H4.35659C4.35659 18.8428 8.5372 20.5852 9.81124 20.9918C11.4288 21.508 12.9858 21.5442 13.5218 21.5442V10.107ZM21.4754 10.107H13.5218V21.5442H21.4754V10.107ZM31.3034 19.935C31.3034 16.4274 29.7138 13.6832 27.3851 12.0066C25.3481 10.5399 23.0754 10.107 21.4754 10.107V21.5442C21.2849 21.5442 21.1843 21.5211 21.1243 21.5039C21.0564 21.4845 20.9016 21.4318 20.7023 21.2883C20.4823 21.1299 20.2325 20.8755 20.0531 20.5277C19.8713 20.1754 19.8661 19.9295 19.8661 19.935H31.3034ZM31.3034 41.012V19.935H19.8661V41.012H31.3034ZM27.7057 39.4028C29.0124 39.4028 30.0692 39.9956 30.7012 40.6273C31.2165 41.1424 31.3689 41.587 31.3694 41.5884C31.387 41.6357 31.3611 41.575 31.335 41.3977C31.3105 41.2316 31.3034 41.0825 31.3034 41.012H19.8661C19.8661 42.1117 20.016 43.8703 20.6485 45.5724C21.1543 46.9335 23.0365 50.84 27.7057 50.84V39.4028ZM24.5058 41.012C24.5058 41.0788 24.4993 41.2019 24.48 41.3242C24.4586 41.4604 24.4438 41.4536 24.4937 41.3356C24.5358 41.2362 24.746 40.7654 25.3171 40.2859C25.99 39.721 26.863 39.4028 27.7057 39.4028V50.84C32.0076 50.84 34.204 47.7375 35.0271 45.792C35.8087 43.9444 35.943 42.0611 35.943 41.012H24.5058ZM24.5058 19.935V41.012H35.943V19.935H24.5058ZM34.5989 10.107C31.1415 10.107 28.2933 11.5255 26.4843 13.9138C24.8872 16.0225 24.4537 18.413 24.5087 20.1193L35.94 19.7506C35.9478 19.9935 35.9192 20.1495 35.8874 20.2625C35.8522 20.388 35.7753 20.59 35.6015 20.8194C35.4106 21.0714 35.1472 21.2946 34.8525 21.4353C34.5661 21.5721 34.4328 21.5442 34.5989 21.5442V10.107ZM42.2873 10.107H34.5989V21.5442H42.2873V10.107ZM49.1101 20.804C49.879 19.6933 50.8728 17.5917 50.1127 15.056C49.3976 12.6703 47.5949 11.519 46.6995 11.0664C44.9715 10.1931 43.1084 10.107 42.2873 10.107V21.5442C42.2804 21.5442 42.2859 21.5441 42.2968 21.5449C42.3081 21.5458 42.3051 21.5461 42.2847 21.5427C42.2673 21.5399 42.2019 21.5285 42.0973 21.4981C41.9997 21.4696 41.7995 21.405 41.5405 21.274C41.1566 21.08 39.7366 20.2733 39.1571 18.34C38.5326 16.2567 39.4148 14.7151 39.7065 14.2938L49.1101 20.804ZM48.2513 23.0618C48.3181 22.2614 48.4085 22.0049 48.445 21.9095C48.4929 21.7843 48.6066 21.5312 49.1101 20.804L39.7065 14.2938C39.017 15.2898 38.297 16.4261 37.7624 17.824C37.2163 19.2519 36.9754 20.6524 36.8537 22.1105L48.2513 23.0618ZM49.4766 30.4098C48.3662 28.285 48.0428 25.5593 48.2513 23.0618L36.8537 22.1105C36.5319 25.9659 36.9085 31.0543 39.3401 35.7071L49.4766 30.4098ZM55.0122 36.7552C52.6955 35.3824 50.8034 32.9486 49.4765 30.4098L39.3401 35.7071C41.1947 39.256 44.3398 43.7254 49.1814 46.5945L55.0122 36.7552ZM62.4551 39.7087C60.2581 39.445 58.264 38.6822 55.0122 36.7552L49.1814 46.5945C53.0878 48.9094 56.6613 50.5327 61.0924 51.0644L62.4551 39.7087ZM71.3378 39.3527C69.5418 39.8658 65.3335 40.0541 62.455 39.7087L61.0924 51.0644C64.8419 51.5143 70.7082 51.4274 74.4798 50.3498L71.3378 39.3527ZM75.5317 37.2083C74.5383 38.3236 73.8875 38.6242 71.3378 39.3527L74.4798 50.3498C77.4976 49.4876 80.8236 48.4626 84.0721 44.8157L75.5317 37.2083ZM76.7787 34.6026C76.741 34.9041 76.6062 35.3892 76.3284 35.9631C76.0522 36.5336 75.7392 36.9755 75.5318 37.2083L84.0721 44.8158C85.8985 42.7653 87.695 39.4814 88.1276 36.0213L76.7787 34.6026ZM75.7514 27.6536C76.6815 29.2991 77.0797 32.1941 76.7787 34.6026L88.1276 36.0212C88.6218 32.0669 88.2247 26.478 85.7082 22.0258L75.7514 27.6536ZM70.1146 21.0802C72.0059 22.1393 74.1497 24.8197 75.7514 27.6536L85.7082 22.0258C83.8634 18.7619 80.4397 13.7538 75.7029 11.1012L70.1146 21.0802ZM59.2654 17.5656C62.897 17.4748 66.8838 19.271 70.1146 21.0802L75.7029 11.1012C72.3057 9.19875 65.9529 5.95762 58.9796 6.13195L59.2654 17.5656ZM54.3301 17.9795C54.7809 17.8609 54.9424 17.8171 55.4187 17.7627C56.0347 17.6923 57.1149 17.6194 59.2654 17.5656L58.9796 6.13195C54.3894 6.24671 53.1331 6.46801 51.4202 6.91864L54.3301 17.9795ZM54.37 17.9688L54.3701 17.9688L51.3802 6.92931L51.3801 6.92933L54.37 17.9688ZM54.343 17.9761L54.3432 17.976L51.407 6.92213L51.4068 6.92217L54.343 17.9761ZM53.3827 18.2163C53.7758 18.1256 54.0988 18.0403 54.3298 17.9796L51.42 6.91869C51.1871 6.97995 51.0159 7.0247 50.8109 7.072L53.3827 18.2163ZM51.5924 18.8684C51.7757 18.7584 52.2807 18.4706 53.3827 18.2163L50.8109 7.072C48.4663 7.61306 46.8503 8.37566 45.708 9.06105L51.5924 18.8684ZM41.2299 15.7527C42.1196 18.4556 44.4203 19.3615 45.0558 19.5822C45.975 19.9014 46.8267 19.9703 47.4184 19.974C48.5323 19.981 50.1135 19.7557 51.5924 18.8684L45.708 9.06104C46.5242 8.57138 47.1733 8.53502 47.4899 8.537C47.6829 8.53821 48.1694 8.5562 48.8077 8.77784C49.1623 8.90097 51.2662 9.66272 52.0938 12.1768L41.2299 15.7527ZM41.5916 16.7219C41.7401 16.8711 41.8251 16.9593 41.877 17.0195C41.9016 17.048 41.8554 16.998 41.776 16.8824C41.7339 16.8212 41.6586 16.7071 41.5716 16.5473C41.49 16.3975 41.3524 16.1247 41.2299 15.7526L52.0938 12.1768C51.63 10.7677 50.6949 9.73186 50.5417 9.55398C50.185 9.14 49.8239 8.78015 49.6962 8.65196L41.5916 16.7219ZM41.5469 16.677L41.5895 16.7198L49.6984 8.65411L49.6558 8.61132L41.5469 16.677ZM42.9824 17.8257C43.3289 17.8211 43.5227 17.8192 43.6785 17.8223C43.8308 17.8254 43.8053 17.8318 43.6875 17.8143C43.5608 17.7955 43.2393 17.7369 42.829 17.5571C42.3892 17.3642 41.9388 17.0719 41.5424 16.6725L49.6603 8.61585C48.225 7.16964 46.5565 6.67776 45.3677 6.50121C44.3706 6.35312 43.3176 6.38305 42.8323 6.38942L42.9824 17.8257ZM42.1548 17.8325C42.4641 17.8325 42.7507 17.8287 42.9824 17.8257L42.8323 6.38942C42.5927 6.39257 42.3782 6.39531 42.1548 6.39531V17.8325ZM25.9106 17.9166C33.178 17.8755 40.7682 17.8325 42.1548 17.8325V6.39531C40.7253 6.39531 33.0799 6.43864 25.8458 6.47961L25.9106 17.9166ZM17.2644 17.965C19.7275 17.9517 22.7855 17.9343 25.9106 17.9166L25.8458 6.47961C22.7202 6.49732 19.6639 6.51463 17.2025 6.52793L17.2644 17.965ZM77.2824 41.7971C77.2041 41.9669 77.5336 41.145 78.6733 40.5326C79.7885 39.9334 80.8669 40.0396 80.4765 40.0317L80.2438 51.4666C80.4849 51.4715 82.2551 51.5918 84.0869 50.6075C85.9433 49.61 87.0144 48.0039 87.667 46.5899L77.2824 41.7971ZM89.2388 16.5552C85.5412 24.3466 77.9357 40.3816 77.2824 41.797L87.667 46.5899C88.2862 45.2481 95.8457 29.3096 99.5715 21.4589L89.2388 16.5552ZM100.555 16.9991C100.362 16.4842 99.8589 15.2596 98.6685 14.2457C97.9935 13.6709 97.0202 13.102 95.7654 12.8971C94.4941 12.6896 93.3475 12.9237 92.456 13.3107C90.8956 13.9881 90.075 15.1329 89.8007 15.5392C89.4346 16.0816 89.199 16.6033 89.0506 16.9991L99.7596 21.015C99.6775 21.234 99.5347 21.5613 99.2805 21.938C99.1181 22.1786 98.4284 23.1864 97.0104 23.802C96.1902 24.1581 95.1177 24.38 93.9225 24.1849C92.7439 23.9924 91.8486 23.4605 91.2528 22.9531C90.2206 22.074 89.88 21.1056 89.846 21.015L100.555 16.9991ZM110.729 41.4382C108.986 37.5864 106.52 31.686 104.428 26.5838C103.387 24.0454 102.447 21.7265 101.749 19.9908C101.399 19.1229 101.111 18.4029 100.901 17.876C100.796 17.6121 100.712 17.3995 100.65 17.2422C100.619 17.1634 100.595 17.1015 100.577 17.0557C100.557 17.0039 100.552 16.9903 100.555 16.9991L89.846 21.015C90.2009 21.9614 96.6693 38.111 100.309 46.1534L110.729 41.4382ZM108.7 39.933C109.062 39.933 109.508 40.0731 109.89 40.3553C110.059 40.4799 110.205 40.624 110.333 40.7855C110.448 40.9299 110.615 41.1713 110.775 41.5431L100.262 46.0485C101.23 48.3064 104.039 51.3703 108.7 51.3703V39.933ZM106.163 42.8679C106.163 42.6153 106.238 41.6961 107.076 40.8297C107.96 39.916 108.844 39.933 108.7 39.933V51.3703C110.943 51.3703 113.417 50.7245 115.295 48.7834C117.128 46.8897 117.6 44.5786 117.6 42.8679H106.163ZM106.163 13.9697V42.8679H117.6V13.9697H106.163ZM110.026 17.8325C109.58 17.8325 108.968 17.7334 108.32 17.3991C107.677 17.0671 107.197 16.606 106.869 16.1512C106.298 15.357 106.163 14.5755 106.163 13.9697H117.6C117.6 12.7453 117.28 11.036 116.151 9.46843C114.813 7.60928 112.632 6.39529 110.026 6.39529V17.8325ZM113.888 13.9697C113.888 14.5755 113.754 15.3569 113.182 16.1512C112.854 16.606 112.375 17.0671 111.731 17.3991C111.083 17.7334 110.471 17.8325 110.026 17.8325V6.39529C107.42 6.39529 105.239 7.60927 103.9 9.46843C102.771 11.036 102.451 12.7453 102.451 13.9697H113.888ZM113.888 37.8306V13.9697H102.451V37.8306H113.888ZM102.104 40.1823C102.325 40.7082 102.743 41.6664 103.409 42.4961C103.593 42.7248 104.723 44.1904 106.848 44.6364C108.178 44.9156 109.632 44.7301 110.915 43.997C112.065 43.3402 112.712 42.4556 113.038 41.9077C113.637 40.901 113.788 39.9515 113.832 39.6676C113.898 39.2437 113.915 38.8708 113.92 38.6196C113.93 38.1074 113.896 37.6214 113.86 37.2616L102.48 38.3996C102.488 38.4817 102.483 38.4851 102.485 38.3954C102.485 38.3555 102.489 38.177 102.529 37.9167C102.548 37.7964 102.662 36.9794 103.209 36.06C103.509 35.5557 104.126 34.7035 105.242 34.0659C106.492 33.352 107.908 33.1725 109.197 33.443C111.238 33.8714 112.267 35.2598 112.329 35.3374C112.752 35.865 112.848 36.2256 112.645 35.744L102.104 40.1823ZM91.5386 16.1478C94.739 23.393 101.281 38.2279 102.104 40.1823L112.645 35.744C111.771 33.6686 105.163 18.6862 102.001 11.5265L91.5386 16.1478ZM99.3746 16.0899C99.5785 15.6141 99.4506 16.1566 98.6994 16.7881C98.2539 17.1625 97.4775 17.6582 96.3782 17.8444C95.2304 18.0388 94.1729 17.82 93.3513 17.4329C91.9758 16.7848 91.4439 15.7766 91.4201 15.7349C91.2998 15.5245 91.2723 15.4125 91.271 15.4082L102.268 12.2662C102.09 11.6432 101.802 10.8508 101.35 10.0604C100.995 9.43877 100.061 7.95111 98.226 7.08653C97.1747 6.5912 95.873 6.32987 94.4684 6.56774C93.1123 6.79741 92.0663 7.42263 91.3403 8.03291C90.0279 9.13604 89.2946 10.5755 88.8622 11.5845L99.3746 16.0899ZM85.7654 45.1834C89.703 36.8706 98.0468 19.1882 99.3746 16.0898L88.8622 11.5845C87.6449 14.4248 79.4451 31.8091 75.4292 40.2873L85.7654 45.1834ZM83.7478 41.2649C84.6452 41.9759 85.114 42.8118 85.3493 43.3973C85.5791 43.9692 85.6453 44.4418 85.6682 44.6939C85.6926 44.9628 85.683 45.1576 85.6759 45.2504C85.6684 45.3507 85.6577 45.4101 85.6551 45.4243C85.6513 45.4447 85.657 45.413 85.6751 45.361C85.6988 45.2927 85.6875 45.3479 85.5987 45.5081L75.5958 39.9626C75.039 40.9669 74.6184 42.2123 74.4093 43.3406C74.3035 43.9114 74.1907 44.7686 74.2779 45.7284C74.345 46.4673 74.6458 48.645 76.6446 50.2289L83.7478 41.2649ZM80.4766 40.0317C80.4318 40.0308 80.3182 40.0283 80.1962 40.0283V51.4655C80.1845 51.4655 80.1805 51.4654 80.1896 51.4655C80.1938 51.4656 80.2 51.4657 80.2092 51.4659C80.2189 51.466 80.2292 51.4663 80.2437 51.4665L80.4766 40.0317ZM72.8112 34.2403C72.1199 35.5565 70.6203 36.743 68.0828 37.1735C65.5393 37.6051 62.2826 37.1737 59.0593 35.4805L53.7406 45.6058C58.9838 48.36 64.7676 49.3367 69.996 48.4496C75.2306 47.5614 80.2347 44.7025 82.9365 39.559L72.8112 34.2403ZM66.0283 22.2134C69.2516 23.9066 71.4549 26.3433 72.5431 28.6825C73.6286 31.0162 73.5026 32.9242 72.8112 34.2403L82.9365 39.559C85.6383 34.4156 85.1525 28.6728 82.9133 23.8588C80.6766 19.0503 76.5902 14.8424 71.347 12.0881L66.0283 22.2134ZM52.2763 23.4536C52.9677 22.1374 54.4672 20.951 57.0047 20.5204C59.5483 20.0889 62.805 20.5203 66.0283 22.2134L71.347 12.0881C66.1037 9.33394 60.32 8.35727 55.0915 9.24438C49.857 10.1325 44.8528 12.9915 42.151 18.1349L52.2763 23.4536ZM59.0593 35.4805C55.8359 33.7874 53.6326 31.3507 52.5445 29.0114C51.459 26.6778 51.5849 24.7698 52.2763 23.4536L42.151 18.1349C39.4492 23.2784 39.935 29.0212 42.1743 33.8352C44.4109 38.6436 48.4973 42.8516 53.7406 45.6058L59.0593 35.4805Z" fill="#DEFF4D" mask="url(#path-1-outside-1_1219_11785)"/>
<path d="M136.489 12.9998C134.758 19.2553 131.515 31.0682 130.029 36.8181L120.588 28.1717C122.871 26.1265 125.576 23.7043 127.978 21.5582C129.629 20.0829 131.135 18.7393 132.26 17.7387C132.823 17.2381 133.289 16.8254 133.629 16.5257C133.963 16.2311 134.12 16.0952 134.15 16.0695C134.154 16.0662 134.156 16.0647 134.155 16.0649C135.514 14.9782 135.924 13.14 135.336 11.6127C134.641 9.80509 132.899 8.98445 131.176 8.98445C129.844 8.98445 128.692 9.44229 127.892 9.87493C127.12 10.292 126.473 10.7942 126.038 11.2163L110.802 24.8764C109.82 25.6376 109.063 26.8224 109.063 28.2811C109.063 29.7305 109.81 30.9095 110.783 31.6714C113.324 34.014 117.111 37.5003 120.344 40.4687C123.542 43.4038 126.373 45.9959 126.739 46.2886L128.469 44.1261L126.739 46.2886L126.761 46.3065C127.479 46.881 129.344 48.3734 132.104 48.3734C133.481 48.3734 134.676 47.8622 135.48 47.4104C136.309 46.9445 137 46.3852 137.44 45.9452L137.497 45.8881L137.551 45.8279C141.154 41.7932 147.009 35.2256 151.607 30.0396C149.919 36.2235 148.282 42.2529 148.137 42.9054C147.971 43.6516 147.743 45.1205 148.579 46.4723C149.555 48.049 151.228 48.3734 152.386 48.3734C153.833 48.3734 154.95 47.7517 155.69 47.0686C156.387 46.426 156.832 45.6628 157.061 45.033L157.105 44.9145L157.137 44.7926C158.463 39.8218 160.464 32.3193 162.161 25.9668C163.009 22.7905 163.781 19.9022 164.354 17.7618C164.641 16.6915 164.877 15.809 165.049 15.1713C165.135 14.8523 165.204 14.5957 165.255 14.408L165.316 14.182L165.335 14.114L165.34 14.094C165.342 14.0889 165.342 14.0869 165.342 14.0874C165.654 12.9969 165.662 11.3689 164.35 10.1389C163.28 9.13552 161.897 8.98445 161.002 8.98445C159.555 8.98445 158.369 9.7088 157.733 10.1633C157.027 10.6674 156.437 11.2514 156.063 11.6886C152.474 15.7167 146.662 22.2406 142.13 27.3313C143.813 21.067 145.461 14.94 145.591 14.4851C145.829 13.6505 146.022 12.1886 145.121 10.8376C144.146 9.37501 142.541 8.98445 141.251 8.98445C139.561 8.98445 138.35 9.84637 137.63 10.7117C136.994 11.4773 136.646 12.3381 136.489 12.9998Z" fill="black" stroke="#DEFF4D" stroke-width="5.71861"/>
<rect x="108.19" y="19.4688" width="3.67625" height="18.7897" fill="black"/>
<path d="M78.2903 51.7378C77.5278 51.52 76.2933 50.2855 75.9756 49.8316L79.3795 49.0147L83.7366 49.4232L85.9151 48.1978C85.2343 50.104 83.4642 51.7378 81.4219 52.0102C80.4393 52.1412 79.2434 52.0102 78.2903 51.7378Z" fill="#DEFF4D"/>
</svg>
