<svg width="103" height="103" viewBox="0 0 103 103" fill="none" xmlns="http://www.w3.org/2000/svg">
<rect width="103" height="103" rx="23" fill="#DEFF4D"/>
<mask id="mask0_4385_37225" style="mask-type:alpha" maskUnits="userSpaceOnUse" x="0" y="0" width="103" height="103">
<rect width="103" height="103" rx="23" fill="#DEFF4D"/>
</mask>
<g mask="url(#mask0_4385_37225)">
<path fill-rule="evenodd" clip-rule="evenodd" d="M50.2414 26.8711C50.8891 24.8575 53.5589 24.8575 54.2066 26.8711C56.7512 34.7818 58.133 43.2683 58.133 52.1125C58.133 60.9568 56.7512 69.4432 54.2066 77.3539C53.5589 79.3675 50.8891 79.3675 50.2414 77.3539C47.6969 69.4432 46.3151 60.9568 46.3151 52.1125C46.3151 43.2683 47.6969 34.7818 50.2414 26.8711ZM48.6171 13.6714C48.9622 14.3178 48.9716 15.0895 48.6667 15.7558C47.7079 17.8508 46.8294 19.9938 46.0354 22.1806C45.0699 24.8396 35.7255 25.2293 34.41 22.7249C24.5158 3.88851 5.40554 -8.87305 -16.5462 -8.87305C-48.6559 -8.87305 -74.6858 18.4314 -74.6858 52.1132C-74.6858 85.795 -48.6559 113.099 -16.5462 113.099C5.40575 113.099 24.5162 100.338 34.4103 81.501C35.7257 78.9966 45.0701 79.3862 46.0357 82.0451C46.8296 84.2317 47.708 86.3745 48.6667 88.4693C48.9716 89.1355 48.9622 89.9073 48.6171 90.5537C35.7858 114.59 11.3082 130.72 -16.548 130.72C-57.5481 130.72 -91.229 95.777 -91.229 52.1125C-91.229 8.44805 -57.5481 -26.4946 -16.548 -26.4946C11.3082 -26.4946 35.7858 -10.3647 48.6171 13.6714ZM54.3495 5.32563C53.3711 6.85604 51.077 6.85603 50.0986 5.32562C35.7089 -17.1839 11.2299 -32 -16.548 -32C-60.8337 -32 -96.7344 5.65846 -96.7344 52.1125C-96.7344 98.5666 -60.8337 136.225 -16.548 136.225C11.2299 136.225 35.7089 121.409 50.0986 98.8994C51.077 97.369 53.3711 97.369 54.3495 98.8994C68.7392 121.409 93.2181 136.225 120.996 136.225C165.282 136.225 201.182 98.5666 201.182 52.1125C201.182 5.65847 165.282 -32 120.996 -32C93.2181 -32 68.7392 -17.1839 54.3495 5.32563ZM55.831 13.6714C55.4859 14.3178 55.4764 15.0895 55.7814 15.7558C56.7352 17.84 57.6096 19.9719 58.4005 22.147C59.3673 24.8063 68.7402 25.1973 70.0573 22.6931C79.956 3.87318 99.0577 -8.87481 120.998 -8.87481C153.107 -8.87481 179.137 18.4297 179.137 52.1114C179.137 85.7932 153.107 113.098 120.998 113.098C99.0579 113.098 79.9565 100.35 70.0577 81.5305C68.7405 79.0263 59.3677 79.4175 58.4009 82.0767C57.61 84.2523 56.7354 86.3846 55.7814 88.4693C55.4764 89.1355 55.4859 89.9073 55.831 90.5537C68.6622 114.59 93.1398 130.72 120.996 130.72C161.996 130.72 195.677 95.777 195.677 52.1125C195.677 8.44805 161.996 -26.4946 120.996 -26.4946C93.1398 -26.4946 68.6622 -10.3648 55.831 13.6714ZM-16.5462 -3.36763C12.2778 -3.36763 36.0879 21.221 36.0879 52.1132C36.0879 83.0054 12.2778 107.594 -16.5462 107.594C-45.3703 107.594 -69.1804 83.0054 -69.1804 52.1132C-69.1804 21.221 -45.3703 -3.36763 -16.5462 -3.36763ZM173.632 52.1114C173.632 21.2193 149.822 -3.3694 120.998 -3.3694C92.1738 -3.3694 68.3636 21.2193 68.3636 52.1114C68.3636 83.0036 92.1738 107.592 120.998 107.592C149.822 107.592 173.632 83.0036 173.632 52.1114Z" fill="#363636"/>
</g>
</svg>
