<svg width="47" height="44" viewBox="0 0 47 44" fill="none" xmlns="http://www.w3.org/2000/svg">
<path fill-rule="evenodd" clip-rule="evenodd" d="M4.11956 18.7386C16.4738 12.7161 24.6982 8.71431 28.828 6.77285C40.5822 1.26544 43.053 0.314524 44.6414 0.274902C44.9944 0.274902 45.7709 0.354146 46.3004 0.829606C46.724 1.22582 46.8299 1.7409 46.9005 2.13712C46.9711 2.53334 47.0417 3.36539 46.9711 3.99934C46.3357 11.5274 43.5825 29.793 42.1706 38.1928C41.5705 41.7587 40.4057 42.9474 39.2761 43.0663C36.8053 43.304 34.9345 41.2437 32.5696 39.5003C28.828 36.7664 26.7454 35.0627 23.1098 32.3684C18.9093 29.2779 21.6273 27.5742 24.0275 24.8007C24.6629 24.0875 35.4993 12.9934 35.7111 12.0029C35.7464 11.884 35.7464 11.4086 35.4993 11.1708C35.2522 10.9331 34.8992 11.0124 34.6168 11.0916C34.2286 11.1709 28.2985 15.6085 16.7562 24.3649C15.0619 25.6724 13.5441 26.3063 12.1675 26.2667C10.6496 26.2271 7.75523 25.3158 5.56677 24.5233C2.91944 23.5724 0.801569 23.0573 0.978058 21.3932C1.08395 20.5216 2.14288 19.6499 4.11956 18.7386Z" fill="#D9D9D9"/>
</svg>
